<?xml version="1.0" encoding="UTF-8"?>
<svg id="Livello_1" data-name="Livello 1" xmlns="http://www.w3.org/2000/svg" viewBox="0 0 87.27 72.58">
  <defs>
    <style>
      .cls-1 {
        fill: #0900aa;
      }

      .cls-2 {
        fill: #d92a2c;
      }

      .cls-2, .cls-3 {
        stroke: #ff66d2;
        stroke-miterlimit: 10;
        stroke-width: .25px;
      }

      .cls-3, .cls-4 {
        fill: #bf4c9e;
      }

      .cls-5 {
        fill: #ff66d2;
      }

      .cls-bg {
        fill: #ffffff;
      }
    </style>
  </defs>
  <rect class="cls-bg" x="30.85" y="30.06" width="24.07" height="30.55"/>
  <polygon class="cls-2" points="5.93 30.06 4.32 33.52 .34 33.77 3.37 36.13 2.42 39.68 5.93 37.74 9.43 39.68 8.48 36.13 11.61 33.77 7.54 33.52 5.93 30.06"/>
  <g>
    <polyline class="cls-4" points="18.01 31.81 43.61 16.11 69.01 31.81 70.71 28.51 61.31 22.71 43.61 11.91 16.21 28.51"/>
    <polygon class="cls-5" points="69.06 31.98 68.95 31.91 43.61 16.25 18.08 31.91 17.95 31.7 43.61 15.96 43.68 16 68.96 31.63 70.55 28.55 61.25 22.81 43.61 12.05 16.28 28.61 16.15 28.4 43.61 11.76 43.68 11.8 61.38 22.6 70.88 28.46 69.06 31.98"/>
  </g>
  <polygon class="cls-3" points="26.28 27.37 59.79 27.37 59.79 60.61 54.92 60.61 54.92 30.06 30.85 30.06 30.85 60.61 26.28 60.61 26.28 27.37"/>
  <polygon class="cls-1" points="55.18 30.06 43.37 33.18 43.37 57.81 55.34 60.61 55.18 30.06"/>
  <path class="cls-4" d="M43.62.73C25.76.68,8.49,10.81,3.73,24.92l-.6,1.99h3.11C9.55,17.89,20,2.36,43.62,2.31c17.13-.05,32.81,9.23,37.57,22.51l.53,1.57h2.58C81.32,14.53,67.56.73,43.62,0v.73Z"/>
  <path class="cls-4" d="M43.82,71.78c17.86.06,35.13-10.99,39.89-26.38l.6-2.17h-3.11c-3.31,9.84-13.76,26.78-37.38,26.84-17.13.06-32.81-10.07-37.57-24.55l-.53-1.72h-2.58c2.98,12.93,16.74,27.99,40.68,28.79v-.8Z"/>
  <polygon class="cls-2" points="81.46 29.86 79.92 33.28 76.09 33.53 79 35.86 78.09 39.36 81.46 37.45 84.83 39.36 83.92 35.86 86.93 33.53 83.01 33.28 81.46 29.86"/>
</svg>
