<?xml version="1.0" encoding="UTF-8"?>
<svg id="Livello_1" data-name="Livello 1" xmlns="http://www.w3.org/2000/svg" viewBox="0 0 86.05 72.58">
  <defs>
    <style>
      .cls-1 {
        fill: #0900aa;
      }

      .cls-2 {
        fill: #bf4c9e;
      }

      .cls-3 {
        fill: #d92a2c;
      }

      .cls-bg {
        fill: #ffffff;
      }
    </style>
  </defs>
  <ellipse class="cls-bg" cx="43.02" cy="36.25" rx="37" ry="34"/>
  <polygon class="cls-3" points="3.77 31.81 2.68 34.34 0 34.52 2.04 36.25 1.4 38.84 3.77 37.42 6.13 38.84 5.49 36.25 7.6 34.52 4.85 34.34 3.77 31.81"/>
  <polyline class="cls-2" points="17.7 31.81 43.3 16.11 68.7 31.81 70.4 28.51 61 22.71 43.3 11.91 15.9 28.51"/>
  <polygon class="cls-2" points="25.97 27.37 59.48 27.37 59.48 60.61 54.6 60.61 54.6 30.06 30.53 30.06 30.53 60.61 25.97 60.61 25.97 27.37"/>
  <polygon class="cls-1" points="54.87 30.06 43.05 33.18 43.05 57.81 55.03 60.61 54.87 30.06"/>
  <path class="cls-2" d="M42.95.85C24.94.79,7.53,12.56,2.72,28.97l-.6,2.32h3.14C8.59,20.8,19.14,2.74,42.95,2.68c17.28-.06,33.09,10.73,37.9,26.16l.53,1.83h2.6C80.98,16.89,67.11.85,42.95,0v.85Z"/>
  <path class="cls-2" d="M43.25,71.65c17.97.07,35.35-12.67,40.14-30.41l.6-2.51h-3.13c-3.33,11.35-13.85,30.87-37.61,30.94-17.24.07-33.02-11.61-37.81-28.3l-.53-1.98h-2.6c3,14.91,16.84,32.26,40.94,33.18v-.92Z"/>
  <polygon class="cls-3" points="82.22 31.29 81.13 33.82 78.45 34 80.5 35.73 79.86 38.33 82.22 36.91 84.58 38.33 83.94 35.73 86.05 34 83.31 33.82 82.22 31.29"/>
</svg>
